<svg xmlns="http://www.w3.org/2000/svg" viewBox="0 0 100 100" preserveAspectRatio="none">
  <defs>
    <filter id="glow" x="-20%" y="-20%" width="140%" height="140%">
      <feGaussianBlur stdDeviation="0.55" result="b"/>
      <feMerge><feMergeNode in="b"/><feMergeNode in="SourceGraphic"/></feMerge>
    </filter>
  </defs>
  <g fill="none" stroke-linecap="round" stroke-linejoin="round" filter="url(#glow)">
    <rect x="1.1" y="1.1" width="97.8" height="97.8" rx="0.8" stroke="#8b5d18" stroke-width="1.15"/>
    <rect x="1.9" y="1.9" width="96.2" height="96.2" rx="0.5" stroke="#f0c75e" stroke-width="0.62"/>
    <rect x="3.0" y="3.0" width="94.0" height="94.0" rx="0.3" stroke="#f3d276" stroke-width="0.28"/>

    <!-- upper-left flourish -->
    <path d="M2.2 14.5V6.2Q2.2 2.2 6.2 2.2H15.0" stroke="#f0c75e" stroke-width="0.72"/>
    <path d="M3.1 11.8Q6.0 11.8 6.0 8.8Q6.0 5.4 9.5 5.4Q12.8 5.4 12.8 2.7" stroke="#d9a940" stroke-width="0.55"/>
    <path d="M3.0 6.2L6.1 3.1L9.2 6.2L6.1 9.3Z" stroke="#f3d276" stroke-width="0.45"/>
    <circle cx="6.1" cy="6.2" r="1.15" stroke="#8b5d18" stroke-width="0.45"/>

    <!-- upper-right flourish -->
    <path d="M98 14.5V6.2Q98 2.2 93.8 2.2H85.0" stroke="#f0c75e" stroke-width="0.72"/>
    <path d="M96.9 11.8Q94.0 11.8 94.0 8.8Q94.0 5.4 90.5 5.4Q87.2 5.4 87.2 2.7" stroke="#d9a940" stroke-width="0.55"/>
    <path d="M97.0 6.2L93.9 3.1L90.8 6.2L93.9 9.3Z" stroke="#f3d276" stroke-width="0.45"/>
    <circle cx="93.9" cy="6.2" r="1.15" stroke="#8b5d18" stroke-width="0.45"/>

    <!-- lower-left flourish -->
    <path d="M2.2 85.5V93.8Q2.2 97.8 6.2 97.8H15.0" stroke="#f0c75e" stroke-width="0.72"/>
    <path d="M3.1 88.2Q6.0 88.2 6.0 91.2Q6.0 94.6 9.5 94.6Q12.8 94.6 12.8 97.3" stroke="#d9a940" stroke-width="0.55"/>
    <path d="M3.0 93.8L6.1 96.9L9.2 93.8L6.1 90.7Z" stroke="#f3d276" stroke-width="0.45"/>
    <circle cx="6.1" cy="93.8" r="1.15" stroke="#8b5d18" stroke-width="0.45"/>

    <!-- lower-right flourish -->
    <path d="M98 85.5V93.8Q98 97.8 93.8 97.8H85.0" stroke="#f0c75e" stroke-width="0.72"/>
    <path d="M96.9 88.2Q94.0 88.2 94.0 91.2Q94.0 94.6 90.5 94.6Q87.2 94.6 87.2 97.3" stroke="#d9a940" stroke-width="0.55"/>
    <path d="M97.0 93.8L93.9 96.9L90.8 93.8L93.9 90.7Z" stroke="#f3d276" stroke-width="0.45"/>
    <circle cx="93.9" cy="93.8" r="1.15" stroke="#8b5d18" stroke-width="0.45"/>

    <!-- center top and bottom ornaments -->
    <path d="M41 1.9H46.8M53.2 1.9H59" stroke="#d9a940" stroke-width="0.5"/>
    <path d="M47.0 1.9L50 0.25L53 1.9L50 4.95Z" fill="#f0c75e" stroke="#8b5d18" stroke-width="0.5"/>
    <path d="M41 98.1H46.8M53.2 98.1H59" stroke="#d9a940" stroke-width="0.5"/>
    <path d="M47.0 98.1L50 96.05L53 98.1L50 100.0Z" fill="#f0c75e" stroke="#8b5d18" stroke-width="0.5"/>
  </g>
</svg>
